<?xml version="1.0" encoding="UTF-8" standalone="no"?>
<!DOCTYPE svg PUBLIC "-//W3C//DTD SVG 1.1//EN"
 "http://www.w3.org/Graphics/SVG/1.1/DTD/svg11.dtd">
<!-- Generated by graphviz version 2.43.0 (0)
 -->
<!-- Title: DecisionTree Pages: 1 -->
<svg width="646pt" height="218pt"
 viewBox="0.00 0.00 645.59 218.00" xmlns="http://www.w3.org/2000/svg" xmlns:xlink="http://www.w3.org/1999/xlink">
<g id="graph0" class="graph" transform="scale(1 1) rotate(0) translate(4 214)">
<title>DecisionTree</title>
<polygon fill="white" stroke="transparent" points="-4,4 -4,-214 641.59,-214 641.59,4 -4,4"/>
<!-- a1 -->
<g id="node1" class="node">
<title>a1</title>
<polygon fill="none" stroke="black" points="435.49,-210 363.49,-210 363.49,-174 435.49,-174 435.49,-210"/>
<text text-anchor="middle" x="399.49" y="-188.3" font-family="Times,serif" font-size="14.00">Outlook</text>
</g>
<!-- a2 -->
<g id="node2" class="node">
<title>a2</title>
<polygon fill="none" stroke="black" points="276.99,-123 193.99,-123 193.99,-87 276.99,-87 276.99,-123"/>
<text text-anchor="middle" x="235.49" y="-101.3" font-family="Times,serif" font-size="14.00">Humidity</text>
</g>
<!-- a1&#45;&gt;a2 -->
<g id="edge2" class="edge">
<title>a1&#45;&gt;a2</title>
<path fill="none" stroke="black" d="M366.31,-173.8C340.66,-160.51 304.99,-142.02 277.38,-127.71"/>
<polygon fill="black" stroke="black" points="278.84,-124.52 268.35,-123.03 275.62,-130.74 278.84,-124.52"/>
<text text-anchor="middle" x="348.99" y="-144.8" font-family="Times,serif" font-size="14.00">sunny</text>
</g>
<!-- a3 -->
<g id="node3" class="node">
<title>a3</title>
<polygon fill="none" stroke="black" points="426.49,-123 372.49,-123 372.49,-87 426.49,-87 426.49,-123"/>
<text text-anchor="middle" x="399.49" y="-101.3" font-family="Times,serif" font-size="14.00">Wind</text>
</g>
<!-- a1&#45;&gt;a3 -->
<g id="edge3" class="edge">
<title>a1&#45;&gt;a3</title>
<path fill="none" stroke="black" d="M399.49,-173.8C399.49,-162.16 399.49,-146.55 399.49,-133.24"/>
<polygon fill="black" stroke="black" points="402.99,-133.18 399.49,-123.18 395.99,-133.18 402.99,-133.18"/>
<text text-anchor="middle" x="413.99" y="-144.8" font-family="Times,serif" font-size="14.00">rain</text>
</g>
<!-- c11 -->
<g id="node4" class="node">
<title>c11</title>
<ellipse fill="lightgreen" stroke="lightgreen" cx="518.49" cy="-105" rx="74.19" ry="18"/>
<text text-anchor="middle" x="518.49" y="-101.3" font-family="Times,serif" font-size="14.00">Play Golf: Yes</text>
</g>
<!-- a1&#45;&gt;c11 -->
<g id="edge1" class="edge">
<title>a1&#45;&gt;c11</title>
<path fill="none" stroke="black" d="M423.58,-173.8C442,-160.64 467.54,-142.4 487.49,-128.15"/>
<polygon fill="black" stroke="black" points="489.56,-130.97 495.66,-122.31 485.49,-125.27 489.56,-130.97"/>
<text text-anchor="middle" x="496.99" y="-144.8" font-family="Times,serif" font-size="14.00">overcast</text>
</g>
<!-- c20 -->
<g id="node5" class="node">
<title>c20</title>
<ellipse fill="lightcoral" stroke="lightcoral" cx="71.49" cy="-18" rx="71.49" ry="18"/>
<text text-anchor="middle" x="71.49" y="-14.3" font-family="Times,serif" font-size="14.00">Play Golf: No</text>
</g>
<!-- a2&#45;&gt;c20 -->
<g id="edge4" class="edge">
<title>a2&#45;&gt;c20</title>
<path fill="none" stroke="black" d="M202.31,-86.8C175.73,-73.03 138.41,-53.68 110.43,-39.18"/>
<polygon fill="black" stroke="black" points="111.81,-35.95 101.32,-34.46 108.59,-42.17 111.81,-35.95"/>
<text text-anchor="middle" x="179.49" y="-57.8" font-family="Times,serif" font-size="14.00">high</text>
</g>
<!-- c21 -->
<g id="node6" class="node">
<title>c21</title>
<ellipse fill="lightgreen" stroke="lightgreen" cx="235.49" cy="-18" rx="74.19" ry="18"/>
<text text-anchor="middle" x="235.49" y="-14.3" font-family="Times,serif" font-size="14.00">Play Golf: Yes</text>
</g>
<!-- a2&#45;&gt;c21 -->
<g id="edge5" class="edge">
<title>a2&#45;&gt;c21</title>
<path fill="none" stroke="black" d="M235.49,-86.8C235.49,-75.16 235.49,-59.55 235.49,-46.24"/>
<polygon fill="black" stroke="black" points="238.99,-46.18 235.49,-36.18 231.99,-46.18 238.99,-46.18"/>
<text text-anchor="middle" x="260.99" y="-57.8" font-family="Times,serif" font-size="14.00">normal</text>
</g>
<!-- c30 -->
<g id="node7" class="node">
<title>c30</title>
<ellipse fill="lightcoral" stroke="lightcoral" cx="399.49" cy="-18" rx="71.49" ry="18"/>
<text text-anchor="middle" x="399.49" y="-14.3" font-family="Times,serif" font-size="14.00">Play Golf: No</text>
</g>
<!-- a3&#45;&gt;c30 -->
<g id="edge6" class="edge">
<title>a3&#45;&gt;c30</title>
<path fill="none" stroke="black" d="M399.49,-86.8C399.49,-75.16 399.49,-59.55 399.49,-46.24"/>
<polygon fill="black" stroke="black" points="402.99,-46.18 399.49,-36.18 395.99,-46.18 402.99,-46.18"/>
<text text-anchor="middle" x="422.99" y="-57.8" font-family="Times,serif" font-size="14.00">strong</text>
</g>
<!-- c31 -->
<g id="node8" class="node">
<title>c31</title>
<ellipse fill="lightgreen" stroke="lightgreen" cx="563.49" cy="-18" rx="74.19" ry="18"/>
<text text-anchor="middle" x="563.49" y="-14.3" font-family="Times,serif" font-size="14.00">Play Golf: Yes</text>
</g>
<!-- a3&#45;&gt;c31 -->
<g id="edge7" class="edge">
<title>a3&#45;&gt;c31</title>
<path fill="none" stroke="black" d="M426.57,-89.96C453.29,-76.12 494.39,-54.81 524.6,-39.16"/>
<polygon fill="black" stroke="black" points="526.32,-42.21 533.59,-34.5 523.1,-35.99 526.32,-42.21"/>
<text text-anchor="middle" x="509.99" y="-57.8" font-family="Times,serif" font-size="14.00">weak</text>
</g>
</g>
</svg>
